<svg xmlns="http://www.w3.org/2000/svg" x="0px" y="0px" viewBox="5.729999542236328 12.695998191833496 36.54100036621094 22.082000732421875" enable-background="new 0 0 48 48">
<g>
	
		<path fill="#000000" stroke="#E6E9EC" stroke-width="2.5" stroke-linecap="round" stroke-linejoin="round" stroke-miterlimit="10" d="   M20.216,20.564L20.216,20.564c0-0.001,0-0.001,0-0.002c-0.001-3.654-2.963-6.616-6.618-6.616c-3.259,0-6.618,2.963-6.618,6.618v0   c0,0.281,0.035,0.673,0.037,0.693c0.372,3.809,3.575,10.254,6.581,10.254s6.209-6.446,6.581-10.254   C20.181,21.237,20.216,20.765,20.216,20.564z"/>
	
		<circle fill="none" stroke="#E6E9EC" stroke-width="2.5" stroke-linecap="round" stroke-linejoin="round" stroke-miterlimit="10" cx="13.598" cy="20.692" r="2.745"/>
</g>
<g>
	
		<path fill="#000000" stroke="#E6E9EC" stroke-width="2.5" stroke-linecap="round" stroke-linejoin="round" stroke-miterlimit="10" d="   M41.021,20.564L41.021,20.564c0-0.001,0-0.001,0-0.002c-0.001-3.654-2.963-6.616-6.618-6.616c-3.259,0-6.618,2.963-6.618,6.618v0   c0,0.281,0.035,0.673,0.037,0.693c0.372,3.809,3.575,10.254,6.581,10.254s6.209-6.446,6.581-10.254   C40.986,21.237,41.021,20.765,41.021,20.564z"/>
	
		<circle fill="none" stroke="#E6E9EC" stroke-width="2.5" stroke-linecap="round" stroke-linejoin="round" stroke-miterlimit="10" cx="34.402" cy="20.692" r="2.745"/>
</g>
<g>
	<g>
		
			<line fill="none" stroke="#000000" stroke-width="2.5" stroke-linecap="round" stroke-linejoin="round" x1="34.275" y1="33.528" x2="32.775" y2="33.528"/>
		
			<line fill="none" stroke="#000000" stroke-width="2.5" stroke-linecap="round" stroke-linejoin="round" stroke-dasharray="3.5355,3.5355" x1="29.239" y1="33.528" x2="16.865" y2="33.528"/>
		
			<line fill="none" stroke="#000000" stroke-width="2.5" stroke-linecap="round" stroke-linejoin="round" x1="15.098" y1="33.528" x2="13.598" y2="33.528"/>
	</g>
</g>
</svg>