<svg xmlns="http://www.w3.org/2000/svg" x="0px" y="0px" viewBox="16.683998107910156 11.996000289916992 30.631999969482422 40.009002685546875" enable-background="new 0 0 64 64">
<g>
	<g>
	</g>
	
		<path fill="#000000" stroke="#E6E9EC" stroke-width="2.5" stroke-linecap="round" stroke-linejoin="round" stroke-miterlimit="10" d="   M24.967,22.623h14.066c3.884,0,7.033,3.149,7.033,7.033v14.066c0,3.884-3.149,7.033-7.033,7.033H24.967   c-3.884,0-7.033-3.149-7.033-7.033V29.656C17.934,25.772,21.083,22.623,24.967,22.623z"/>
</g>
<g>
	
		<path fill="#000000" stroke="#E6E9EC" stroke-width="2.5" stroke-linecap="round" stroke-linejoin="round" stroke-miterlimit="10" d="   M42.125,23.371L42.125,23.371c0-0.001,0-0.002,0-0.003C42.123,17.777,37.591,13.246,32,13.246c-4.985,0-10.125,4.533-10.125,10.125   v0c0,0.429,0.053,1.03,0.056,1.06C22.501,30.258,27.4,40.119,32,40.119s9.499-9.861,10.069-15.688   C42.072,24.401,42.125,23.677,42.125,23.371z"/>
	
		<circle fill="#000000" stroke="#E6E9EC" stroke-width="2.5" stroke-linecap="round" stroke-linejoin="round" stroke-miterlimit="10" cx="32" cy="23.567" r="4.199"/>
</g>
</svg>